<?xml version="1.0" encoding="UTF-8"?>
<svg version="1.1" xmlns="http://www.w3.org/2000/svg" width="250" height="251">
<path d="M0 0 C3.10267187 2.73550344 6.07440644 5.59258786 9.01171875 8.50390625 C9.89085937 9.37015625 10.77 10.23640625 11.67578125 11.12890625 C31.82736412 32.09154354 41.83633407 62.09626169 42.32421875 90.81640625 C41.44142036 123.67185947 29.18713058 153.96497069 5.51464844 176.95800781 C-18.2106458 198.86671186 -49.56988065 208.44691848 -81.39501953 207.42675781 C-94.10128497 206.68268499 -107.92768414 204.34013668 -119.4765625 198.84375 C-126.73868945 196.07299411 -133.67198996 197.61514028 -140.94140625 199.69140625 C-142.63014661 200.14736408 -144.31895074 200.6030858 -146.0078125 201.05859375 C-148.619862 201.77750646 -151.2303175 202.50167873 -153.83935547 203.23144531 C-175.65210135 209.2939782 -175.65210135 209.2939782 -183.98828125 207.50390625 C-187.78255258 204.89123727 -189.99453915 203.0751199 -190.98828125 198.50390625 C-190.6121727 188.42815616 -187.62816586 178.92375983 -184.98828125 169.25390625 C-184.28947861 166.67296943 -183.59295368 164.09145032 -182.89941406 161.50909424 C-182.46992046 159.91209331 -182.03716129 158.31596575 -181.60058594 156.72088623 C-179.02012999 148.66555375 -179.02012999 148.66555375 -180.28125 140.6484375 C-180.58015137 139.95282715 -180.87905273 139.2572168 -181.18701172 138.54052734 C-181.51330566 137.80656738 -181.83959961 137.07260742 -182.17578125 136.31640625 C-193.55924423 109.05615716 -194.2285617 77.26512897 -183.98828125 49.50390625 C-171.12603609 18.39427865 -149.65132609 -4.7388053 -118.44921875 -17.7734375 C-112.10154269 -20.29910697 -105.67368945 -22.0704736 -98.98828125 -23.49609375 C-97.99441406 -23.72039063 -97.00054687 -23.9446875 -95.9765625 -24.17578125 C-62.97876062 -30.47340095 -25.88885798 -21.62481078 0 0 Z " fill="#3DC14E" transform="translate(199.98828125,33.49609375)"/>
<path d="M0 0 C3.10267187 2.73550344 6.07440644 5.59258786 9.01171875 8.50390625 C9.89085937 9.37015625 10.77 10.23640625 11.67578125 11.12890625 C31.82736412 32.09154354 41.83633407 62.09626169 42.32421875 90.81640625 C41.44142036 123.67185947 29.18713058 153.96497069 5.51464844 176.95800781 C-18.2106458 198.86671186 -49.56988065 208.44691848 -81.39501953 207.42675781 C-94.10128497 206.68268499 -107.92768414 204.34013668 -119.4765625 198.84375 C-126.73868945 196.07299411 -133.67198996 197.61514028 -140.94140625 199.69140625 C-142.63014661 200.14736408 -144.31895074 200.6030858 -146.0078125 201.05859375 C-148.619862 201.77750646 -151.2303175 202.50167873 -153.83935547 203.23144531 C-175.65210135 209.2939782 -175.65210135 209.2939782 -183.98828125 207.50390625 C-187.78255258 204.89123727 -189.99453915 203.0751199 -190.98828125 198.50390625 C-190.6121727 188.42815616 -187.62816586 178.92375983 -184.98828125 169.25390625 C-184.28947861 166.67296943 -183.59295368 164.09145032 -182.89941406 161.50909424 C-182.46992046 159.91209331 -182.03716129 158.31596575 -181.60058594 156.72088623 C-179.02012999 148.66555375 -179.02012999 148.66555375 -180.28125 140.6484375 C-180.58015137 139.95282715 -180.87905273 139.2572168 -181.18701172 138.54052734 C-181.51330566 137.80656738 -181.83959961 137.07260742 -182.17578125 136.31640625 C-193.55924423 109.05615716 -194.2285617 77.26512897 -183.98828125 49.50390625 C-171.12603609 18.39427865 -149.65132609 -4.7388053 -118.44921875 -17.7734375 C-112.10154269 -20.29910697 -105.67368945 -22.0704736 -98.98828125 -23.49609375 C-97.99441406 -23.72039063 -97.00054687 -23.9446875 -95.9765625 -24.17578125 C-62.97876062 -30.47340095 -25.88885798 -21.62481078 0 0 Z M-94.98828125 4.50390625 C-95.64022461 4.67027588 -96.29216797 4.83664551 -96.96386719 5.00805664 C-119.67323935 10.99291034 -138.87144428 24.83416833 -151.0234375 45.08203125 C-163.04266675 66.01412832 -166.38681822 88.83625728 -160.26171875 112.2265625 C-158.03976164 119.99987985 -155.42780779 127.98208528 -150.8046875 134.65625 C-148.39943954 138.42705809 -148.68126233 140.12279099 -149.296875 144.38671875 C-150.34514959 149.11283807 -151.71139242 153.73639314 -153.17163086 158.35083008 C-154.55188147 162.74467036 -155.46025829 166.9257072 -155.98828125 171.50390625 C-148.42613946 170.40960064 -141.26336038 168.51413826 -134.00415039 166.1809082 C-126.03228606 163.69741224 -121.4080229 164.44269361 -114.11328125 168.25390625 C-101.02757776 174.63223754 -89.74100719 176.83098441 -75.23828125 176.94140625 C-74.11373535 176.95171875 -72.98918945 176.96203125 -71.83056641 176.97265625 C-48.89823889 176.73030669 -28.92725019 166.42076844 -12.98828125 150.50390625 C-11.76431641 149.29734375 -11.76431641 149.29734375 -10.515625 148.06640625 C7.11759113 129.67704878 11.56055759 107.15084741 11.28125 82.52734375 C10.73941989 62.38621071 1.88385468 45.57476524 -10.98828125 30.50390625 C-11.54902344 29.84132813 -12.10976562 29.17875 -12.6875 28.49609375 C-23.26567616 17.03862335 -37.32825762 10.08336353 -51.98828125 5.50390625 C-53.01953125 5.13265625 -54.05078125 4.76140625 -55.11328125 4.37890625 C-61.76601335 2.3541617 -68.4740009 2.32132716 -75.36328125 2.31640625 C-76.25789063 2.30416016 -77.1525 2.29191406 -78.07421875 2.27929688 C-83.98858224 2.26640219 -89.28451615 2.96568614 -94.98828125 4.50390625 Z " fill="#FCFDFD" transform="translate(199.98828125,33.49609375)"/>
<path d="M0 0 C3.10267187 2.73550344 6.07440644 5.59258786 9.01171875 8.50390625 C9.89085937 9.37015625 10.77 10.23640625 11.67578125 11.12890625 C31.82736412 32.09154354 41.83633407 62.09626169 42.32421875 90.81640625 C41.44142036 123.67185947 29.18713058 153.96497069 5.51464844 176.95800781 C-18.2106458 198.86671186 -49.56988065 208.44691848 -81.39501953 207.42675781 C-94.10128497 206.68268499 -107.92768414 204.34013668 -119.4765625 198.84375 C-126.73868945 196.07299411 -133.67198996 197.61514028 -140.94140625 199.69140625 C-142.63014661 200.14736408 -144.31895074 200.6030858 -146.0078125 201.05859375 C-148.619862 201.77750646 -151.2303175 202.50167873 -153.83935547 203.23144531 C-175.65210135 209.2939782 -175.65210135 209.2939782 -183.98828125 207.50390625 C-187.78255258 204.89123727 -189.99453915 203.0751199 -190.98828125 198.50390625 C-190.6121727 188.42815616 -187.62816586 178.92375983 -184.98828125 169.25390625 C-184.28947861 166.67296943 -183.59295368 164.09145032 -182.89941406 161.50909424 C-182.46992046 159.91209331 -182.03716129 158.31596575 -181.60058594 156.72088623 C-179.02012999 148.66555375 -179.02012999 148.66555375 -180.28125 140.6484375 C-180.58015137 139.95282715 -180.87905273 139.2572168 -181.18701172 138.54052734 C-181.51330566 137.80656738 -181.83959961 137.07260742 -182.17578125 136.31640625 C-193.55924423 109.05615716 -194.2285617 77.26512897 -183.98828125 49.50390625 C-171.12603609 18.39427865 -149.65132609 -4.7388053 -118.44921875 -17.7734375 C-112.10154269 -20.29910697 -105.67368945 -22.0704736 -98.98828125 -23.49609375 C-97.99441406 -23.72039063 -97.00054687 -23.9446875 -95.9765625 -24.17578125 C-62.97876062 -30.47340095 -25.88885798 -21.62481078 0 0 Z M-144.98828125 10.50390625 C-145.74367187 11.10460937 -146.4990625 11.7053125 -147.27734375 12.32421875 C-163.88916636 25.88369233 -174.17187377 46.99946643 -178.98828125 67.50390625 C-179.23320312 68.50421875 -179.478125 69.50453125 -179.73046875 70.53515625 C-184.22764798 92.46660564 -180.14173199 115.34551132 -170.98828125 135.50390625 C-170.40046875 136.365 -169.81265625 137.22609375 -169.20703125 138.11328125 C-166.71329731 143.00483629 -169.34430658 149.27768862 -170.66015625 154.37109375 C-170.8230011 155.00418961 -170.98584595 155.63728546 -171.15362549 156.28956604 C-171.67764516 158.32046095 -172.2076065 160.34974107 -172.73828125 162.37890625 C-172.91713867 163.06800079 -173.09599609 163.75709534 -173.28027344 164.46707153 C-175.98131217 174.87343546 -178.81331524 185.2310595 -181.98828125 195.50390625 C-178.23685098 196.87474069 -175.69735777 196.11301828 -171.921875 195.02734375 C-170.72248291 194.68832031 -169.52309082 194.34929687 -168.28735352 194 C-167.65644806 193.81679199 -167.0255426 193.63358398 -166.3755188 193.44482422 C-164.41551401 192.87592615 -162.45246152 192.31905414 -160.48803711 191.765625 C-157.87214994 191.02808585 -155.25735664 190.28688724 -152.64355469 189.54199219 C-147.7879001 188.16300185 -142.92506609 186.81539522 -138.05078125 185.50390625 C-136.9369104 185.19332275 -136.9369104 185.19332275 -135.80053711 184.87646484 C-129.26703966 183.12534402 -124.77151498 182.75499331 -118.67578125 185.81640625 C-96.34846355 196.52625783 -68.45265074 198.43808884 -44.98828125 190.50390625 C-43.80492187 190.14167969 -42.6215625 189.77945313 -41.40234375 189.40625 C-28.37190044 185.16344561 -17.34226789 178.44678739 -6.98828125 169.50390625 C-6.24191406 168.90191406 -5.49554688 168.29992187 -4.7265625 167.6796875 C13.20124309 152.75549332 25.94258961 128.57381817 29.01171875 105.50390625 C29.35934271 100.35835114 29.45154996 95.2221321 29.44921875 90.06640625 C29.44995392 89.3590332 29.45068909 88.65166016 29.45144653 87.92285156 C29.41941201 76.16867156 28.22606978 65.54061594 24.01171875 54.50390625 C23.75471191 53.80426758 23.49770508 53.10462891 23.23291016 52.38378906 C17.86186047 38.05439561 9.57469563 26.56351496 -0.98828125 15.50390625 C-1.58769531 14.82972656 -2.18710938 14.15554687 -2.8046875 13.4609375 C-18.60567284 -3.63688897 -43.88446366 -14.00057878 -66.76806641 -15.70288086 C-69.57406473 -15.79833141 -72.36823626 -15.82539534 -75.17578125 -15.80859375 C-76.67733765 -15.80013428 -76.67733765 -15.80013428 -78.20922852 -15.79150391 C-103.07290388 -15.38877258 -126.42616984 -5.95020513 -144.98828125 10.50390625 Z " fill="#B4B4B4" transform="translate(199.98828125,33.49609375)"/>
<path d="M0 0 C1.05832031 -0.04898438 2.11664063 -0.09796875 3.20703125 -0.1484375 C6.1875 0.375 6.1875 0.375 8.3046875 2.30859375 C10.77572199 6.33299639 12.6694639 10.46539507 14.5 14.8125 C14.87189453 15.64587891 15.24378906 16.47925781 15.62695312 17.33789062 C17.60961399 22.00840458 18.97022677 25.36881217 17.1875 30.375 C15.48032853 32.81553387 13.57901923 34.9191852 11.5859375 37.12890625 C9.96004269 39.28028853 9.96004269 39.28028853 10.25390625 41.8203125 C15.23403863 55.44795508 28.08332981 64.60207102 40.1875 71.375 C41.20585937 71.96667969 42.22421875 72.55835938 43.2734375 73.16796875 C46.05732886 74.52434965 46.05732886 74.52434965 48.75390625 74.4453125 C52.79335831 72.66873166 54.8844157 69.01887139 57.34960938 65.50390625 C58.58984375 63.8671875 58.58984375 63.8671875 61.1875 61.375 C66.70956599 61.08017108 72.05964906 64.44039441 76.9375 66.8125 C77.79988281 67.22048828 78.66226563 67.62847656 79.55078125 68.04882812 C85.91300517 71.10050517 85.91300517 71.10050517 88.1875 73.375 C88.91149394 78.52714293 88.82907556 83.04249691 86.5625 87.75 C81.15524574 93.72643892 75.67293143 97.73845363 67.63671875 98.87890625 C47.35341789 99.19484552 29.39969445 90.42195509 14.1875 77.375 C13.12504641 76.5416075 12.06255325 75.70826544 11 74.875 C-1.71957412 63.5687119 -16.499352 44.94273563 -18.0625 27.6015625 C-18.44367307 18.14370559 -16.276932 12.01427911 -10.125 4.875 C-6.46415504 0.92410951 -5.54744008 0.17440561 0 0 Z " fill="#FCFEFD" transform="translate(88.8125,74.625)"/>
<path d="M0 0 C0.99 0.33 1.98 0.66 3 1 C2.96519531 1.83144531 2.93039063 2.66289062 2.89453125 3.51953125 C2.85392578 5.14955078 2.85392578 5.14955078 2.8125 6.8125 C2.77769531 7.89144531 2.74289063 8.97039062 2.70703125 10.08203125 C2.73463048 13.01948844 2.73463048 13.01948844 4.51171875 14.88671875 C5.00285156 15.25410156 5.49398438 15.62148437 6 16 C6.33 15.34 6.66 14.68 7 14 C7.66 15.65 8.32 17.3 9 19 C7.3125 19.75 7.3125 19.75 5 20 C2.19709105 18.26486589 0.41632289 16.6434081 -1.375 13.875 C-2.31802747 9.53707364 -1.79691731 5.34682169 -1 1 C-0.67 0.67 -0.34 0.34 0 0 Z " fill="#B2B2B2" transform="translate(11,221)"/>
<path d="M0 0 C3.76664392 0.94166098 4.51008455 1.13130079 7.015625 3.65234375 C7.54414063 4.18150391 8.07265625 4.71066406 8.6171875 5.25585938 C9.15601563 5.81080078 9.69484375 6.36574219 10.25 6.9375 C10.80429688 7.48857422 11.35859375 8.03964844 11.9296875 8.60742188 C16 12.73287408 16 12.73287408 16 15 C14.68 15.33 13.36 15.66 12 16 C12 15.01 12 14.02 12 13 C11.01 13.33 10.02 13.66 9 14 C8.54625 13.236875 8.0925 12.47375 7.625 11.6875 C6.46175508 9.76367186 5.2470585 7.87058776 4 6 C3.67 6.99 3.34 7.98 3 9 C2.01 6.03 1.02 3.06 0 0 Z " fill="#A0A0A0" transform="translate(198,34)"/>
<path d="M0 0 C0.721875 0.845625 1.44375 1.69125 2.1875 2.5625 C3.5796875 3.7690625 3.5796875 3.7690625 5 5 C6.67825636 4.7310307 8.34538158 4.38875029 10 4 C11.79571589 4.082105 13.58939092 4.23028749 15.375 4.4375 C18.61858008 4.78721214 21.73961611 5.04849179 25 4.9375 C28 5 28 5 31 7 C9.62996619 8.87573964 9.62996619 8.87573964 -1 6 C-0.67 5.34 -0.34 4.68 0 4 C0 3.67 0 3.34 0 3 C0 2.01 0 1.02 0 0 Z " fill="#BCBCBC" transform="translate(101,232)"/>
<path d="M0 0 C0.66 0.66 1.32 1.32 2 2 C2.99 2.33 3.98 2.66 5 3 C4.42655063 5.86724686 4.1385485 6.8614515 2 9 C2.66 9.33 3.32 9.66 4 10 C3.67 11.98 3.34 13.96 3 16 C1.35 16 -0.3 16 -2 16 C-2.2396943 10.36718401 -1.38529821 5.45461169 0 0 Z " fill="#B7B7B7" transform="translate(12,98)"/>
<path d="M0 0 C2 1.3125 2 1.3125 4 3 C4 3.99 4 4.98 4 6 C-2.93 7.485 -2.93 7.485 -10 9 C-10.33 8.34 -10.66 7.68 -11 7 C-10.01 7 -9.02 7 -8 7 C-8 6.01 -8 5.02 -8 4 C-6.865625 3.71125 -5.73125 3.4225 -4.5625 3.125 C-3.386875 2.75375 -2.21125 2.3825 -1 2 C-0.67 1.34 -0.34 0.68 0 0 Z " fill="#A9A9A9" transform="translate(37,232)"/>
<path d="M0 0 C0.99 0.33 1.98 0.66 3 1 C3.02692484 3.29160319 3.04636124 5.58329546 3.0625 7.875 C3.07410156 9.15117188 3.08570313 10.42734375 3.09765625 11.7421875 C3 15 3 15 2 17 C1.34 17 0.68 17 0 17 C-0.83725216 13.35861758 -1.13509204 9.98405504 -1.125 6.25 C-1.12757813 5.28578125 -1.13015625 4.3215625 -1.1328125 3.328125 C-1 1 -1 1 0 0 Z " fill="#C0C0C0" transform="translate(239,116)"/>
<path d="M0 0 C0 0.99 0 1.98 0 3 C-3.45745022 3.22527296 -6.91587025 3.42733544 -10.375 3.625 C-11.85226563 3.72167969 -11.85226563 3.72167969 -13.359375 3.8203125 C-14.30039063 3.871875 -15.24140625 3.9234375 -16.2109375 3.9765625 C-17.08024902 4.02893066 -17.94956055 4.08129883 -18.84521484 4.13525391 C-21 4 -21 4 -23 2 C-22.154375 1.95101562 -21.30875 1.90203125 -20.4375 1.8515625 C-12.79709488 1.37586987 -12.79709488 1.37586987 -5.3125 -0.125 C-2 -1 -2 -1 0 0 Z " fill="#898989" transform="translate(142,237)"/>
<path d="M0 0 C-0.66 1.98 -1.32 3.96 -2 6 C-6.455 6.495 -6.455 6.495 -11 7 C-10 4 -10 4 -8.22265625 2.83203125 C-7.50980469 2.49558594 -6.79695312 2.15914062 -6.0625 1.8125 C-5.35222656 1.46832031 -4.64195312 1.12414062 -3.91015625 0.76953125 C-2 0 -2 0 0 0 Z " fill="#BCBCBC" transform="translate(153,232)"/>
<path d="M0 0 C1.32 0 2.64 0 4 0 C4 0.99 4 1.98 4 3 C4.66 3.33 5.32 3.66 6 4 C4.68 5.65 3.36 7.3 2 9 C1.01 8.67 0.02 8.34 -1 8 C-2.2077558 4.37673261 -1.54311128 3.35853631 0 0 Z " fill="#A4A4A4" transform="translate(219,182)"/>
<path d="M0 0 C0.99 0.33 1.98 0.66 3 1 C2.36191406 1.55429687 1.72382812 2.10859375 1.06640625 2.6796875 C0.24011719 3.40414062 -0.58617187 4.12859375 -1.4375 4.875 C-2.26121094 5.59429687 -3.08492187 6.31359375 -3.93359375 7.0546875 C-6.05982155 8.83238745 -6.05982155 8.83238745 -7 11 C-7.66 11 -8.32 11 -9 11 C-9 11.99 -9 12.98 -9 14 C-10.32 13.67 -11.64 13.34 -13 13 C-8.71 8.71 -4.42 4.42 0 0 Z " fill="#868686" transform="translate(50,34)"/>
<path d="M0 0 C2.375 0.3125 2.375 0.3125 5 1 C5.66 1.99 6.32 2.98 7 4 C5.68 5.32 4.36 6.64 3 8 C2.01 7.67 1.02 7.34 0 7 C-0.33 6.01 -0.66 5.02 -1 4 C-0.67 3.67 -0.34 3.34 0 3 C0 2.01 0 1.02 0 0 Z " fill="#9C9C9C" transform="translate(157,12)"/>
<path d="M0 0 C1.0625 1.8125 1.0625 1.8125 2 4 C1.67 4.99 1.34 5.98 1 7 C-1.31 6.34 -3.62 5.68 -6 5 C-6 4.01 -6 3.02 -6 2 C-4.02 1.34 -2.04 0.68 0 0 Z " fill="#9E9E9E" transform="translate(88,228)"/>
<path d="M0 0 C0.99 0 1.98 0 3 0 C3.33 2.97 3.66 5.94 4 9 C2.68 9.33 1.36 9.66 0 10 C-1.231394 6.30581799 -0.64432764 3.7943739 0 0 Z " fill="#A4A4A4" transform="translate(21,177)"/>
<path d="M0 0 C0.66 0.99 1.32 1.98 2 3 C-2.625 7 -2.625 7 -6 7 C-6.33 5.68 -6.66 4.36 -7 3 C-6.21625 2.87625 -5.4325 2.7525 -4.625 2.625 C-1.85942178 2.20882007 -1.85942178 2.20882007 0 0 Z " fill="#9C9C9C" transform="translate(198,212)"/>
<path d="M0 0 C0.99 1.32 1.98 2.64 3 4 C3 3.34 3 2.68 3 2 C4.32 2.33 5.64 2.66 7 3 C5.02579865 5.52259061 4.03254358 5.9929808 0.8125 6.6875 C-0.5796875 6.8421875 -0.5796875 6.8421875 -2 7 C-2 5.68 -2 4.36 -2 3 C-1.34 3 -0.68 3 0 3 C0 2.01 0 1.02 0 0 Z " fill="#A0A0A0" transform="translate(185,217)"/>
<path d="M0 0 C0.33 0.99 0.66 1.98 1 3 C-1.97 5.475 -1.97 5.475 -5 8 C-5.66 7.01 -6.32 6.02 -7 5 C-2.25 0 -2.25 0 0 0 Z " fill="#898989" transform="translate(210,202)"/>
<path d="M0 0 C0.33 0.66 0.66 1.32 1 2 C2.32 1.67 3.64 1.34 5 1 C4.25 6.75 4.25 6.75 2 9 C-0.16295027 6.83704973 -0.5534013 5.94755143 -1 3 C-0.67 2.01 -0.34 1.02 0 0 Z " fill="#BCBCBC" transform="translate(17,196)"/>
<path d="M0 0 C0.66 0.66 1.32 1.32 2 2 C4.06874034 2.6425235 4.06874034 2.6425235 6 3 C4.02 5.97 4.02 5.97 2 9 C0.68 8.01 -0.64 7.02 -2 6 C-1.34 6 -0.68 6 0 6 C0 4.02 0 2.04 0 0 Z " fill="#8F8F8F" transform="translate(215,189)"/>
<path d="M0 0 C1.98 0 3.96 0 6 0 C5.67 1.98 5.34 3.96 5 6 C3.35 6 1.7 6 0 6 C0 4.02 0 2.04 0 0 Z " fill="#C9C9C9" transform="translate(10,108)"/>
<path d="M0 0 C1.32 0.99 2.64 1.98 4 3 C4.33 2.34 4.66 1.68 5 1 C5.66 2.65 6.32 4.3 7 6 C3.25 7.125 3.25 7.125 1 6 C0.27840576 4.35636866 -0.39351421 2.68949614 -1 1 C-0.67 0.67 -0.34 0.34 0 0 Z " fill="#9D9D9D" transform="translate(13,234)"/>
<path d="M0 0 C0.99 0.33 1.98 0.66 3 1 C3.08159574 5.16138263 2.98248524 8.9472484 2 13 C1.34 12.67 0.68 12.34 0 12 C-0.125 4.25 -0.125 4.25 1 2 C0.34 1.67 -0.32 1.34 -1 1 C-0.67 0.67 -0.34 0.34 0 0 Z " fill="#A1A1A1" transform="translate(11,221)"/>
<path d="M0 0 C2.31 0.33 4.62 0.66 7 1 C7 1.66 7 2.32 7 3 C6.34 3 5.68 3 5 3 C5 3.66 5 4.32 5 5 C3.68 5.33 2.36 5.66 1 6 C0.67 4.02 0.34 2.04 0 0 Z " fill="#989898" transform="translate(148,10)"/>
<path d="M0 0 C-0.33 1.98 -0.66 3.96 -1 6 C-1.33 4.68 -1.66 3.36 -2 2 C-2.66 3.32 -3.32 4.64 -4 6 C-4.66 6 -5.32 6 -6 6 C-6.33 4.35 -6.66 2.7 -7 1 C-2.25 0 -2.25 0 0 0 Z " fill="#9F9F9F" transform="translate(103,10)"/>
<path d="M0 0 C0.66 0.66 1.32 1.32 2 2 C0.68 4.64 -0.64 7.28 -2 10 C-2.66 9.67 -3.32 9.34 -4 9 C-4 7.02 -4 5.04 -4 3 C-3.01 2.67 -2.02 2.34 -1 2 C-0.67 1.34 -0.34 0.68 0 0 Z " fill="#8D8D8D" transform="translate(229,173)"/>
<path d="M0 0 C2.3125 0.1875 2.3125 0.1875 4 1 C3.67 1.99 3.34 2.98 3 4 C2.01 3.67 1.02 3.34 0 3 C-0.33 3.99 -0.66 4.98 -1 6 C-2.32 5.67 -3.64 5.34 -5 5 C-2.75 2.4375 -2.75 2.4375 0 0 Z " fill="#A1A1A1" transform="translate(37,48)"/>
<path d="M0 0 C0 1.98 0 3.96 0 6 C-1.98 6 -3.96 6 -6 6 C-6 5.01 -6 4.02 -6 3 C-1.66666667 0 -1.66666667 0 0 0 Z " fill="#939393" transform="translate(64,25)"/>
<path d="M0 0 C1.1446875 1.175625 1.1446875 1.175625 2.3125 2.375 C4.90891805 5.07257717 4.90891805 5.07257717 8 7 C5.03 6.67 2.06 6.34 -1 6 C-0.67 5.34 -0.34 4.68 0 4 C0 3.67 0 3.34 0 3 C0 2.01 0 1.02 0 0 Z " fill="#CBCBCB" transform="translate(101,232)"/>
<path d="M0 0 C0.928125 0.165 1.85625 0.33 2.8125 0.5 C5.95621353 1.07748388 5.95621353 1.07748388 9 1 C7 4 7 4 3.875 4.6875 C2.92625 4.790625 1.9775 4.89375 1 5 C0.67 3.35 0.34 1.7 0 0 Z " fill="#8F8F8F" transform="translate(42,232)"/>
<path d="M0 0 C0.33 1.32 0.66 2.64 1 4 C-1.475 5.485 -1.475 5.485 -4 7 C-4.33 5.68 -4.66 4.36 -5 3 C-3.35 2.01 -1.7 1.02 0 0 Z " fill="#A7A7A7" transform="translate(70,21)"/>
<path d="M0 0 C0.33 0.66 0.66 1.32 1 2 C2.32 1.67 3.64 1.34 5 1 C5.33 2.32 5.66 3.64 6 5 C4.35 4.67 2.7 4.34 1 4 C1 4.66 1 5.32 1 6 C0.34 5.67 -0.32 5.34 -1 5 C-0.67 3.35 -0.34 1.7 0 0 Z " fill="#BFBFBF" transform="translate(187,215)"/>
<path d="M0 0 C1.98 0.495 1.98 0.495 4 1 C4.33 2.32 4.66 3.64 5 5 C3.125 5.625 3.125 5.625 1 6 C0.34 5.34 -0.32 4.68 -1 4 C-0.625 1.875 -0.625 1.875 0 0 Z " fill="#A0A0A0" transform="translate(15,85)"/>
<path d="M0 0 C1.32 0 2.64 0 4 0 C4 0.66 4 1.32 4 2 C5.32 2.33 6.64 2.66 8 3 C7.01 3.33 6.02 3.66 5 4 C4.67 4.66 4.34 5.32 4 6 C3.34 6 2.68 6 2 6 C2 5.01 2 4.02 2 3 C1.34 2.67 0.68 2.34 0 2 C0 1.34 0 0.68 0 0 Z " fill="#828282" transform="translate(133,8)"/>
<path d="M0 0 C3.80076628 2.45210728 3.80076628 2.45210728 4.75 5.0625 C5 7 5 7 5 9 C4.34 9 3.68 9 3 9 C0 3.375 0 3.375 0 0 Z " fill="#D2D2D2" transform="translate(18,168)"/>
<path d="M0 0 C0.99 0.33 1.98 0.66 3 1 C3 1.66 3 2.32 3 3 C3.99 3.33 4.98 3.66 6 4 C4.68 4.99 3.36 5.98 2 7 C1.01 6.01 0.02 5.02 -1 4 C-0.34 4 0.32 4 1 4 C0.67 2.68 0.34 1.36 0 0 Z " fill="#9A9A9A" transform="translate(89,13)"/>
<path d="M0 0 C1.5 1.375 1.5 1.375 3 3 C3 3.66 3 4.32 3 5 C1.02 5.33 -0.96 5.66 -3 6 C-2.67 4.68 -2.34 3.36 -2 2 C-1.34 2 -0.68 2 0 2 C0 1.34 0 0.68 0 0 Z " fill="#969696" transform="translate(154,232)"/>
<path d="M0 0 C0.66 0.66 1.32 1.32 2 2 C1.625 5.625 1.625 5.625 1 9 C-1.5654594 6.4345406 -1.54046087 4.52313332 -2 1 C-1.34 0.67 -0.68 0.34 0 0 Z " fill="#CACACA" transform="translate(17,159)"/>
<path d="M0 0 C2 1 2 1 3.125 4.0625 C3.41375 5.031875 3.7025 6.00125 4 7 C2.35 6.67 0.7 6.34 -1 6 C-0.67 4.02 -0.34 2.04 0 0 Z " fill="#C3C3C3" transform="translate(13,211)"/>
<path d="M0 0 C0.99 0 1.98 0 3 0 C3 1.32 3 2.64 3 4 C2.34 4 1.68 4 1 4 C1.33 5.32 1.66 6.64 2 8 C1.01 8.495 1.01 8.495 0 9 C-1.10844919 5.67465243 -0.84454356 3.37817425 0 0 Z " fill="#8D8D8D" transform="translate(13,92)"/>
<path d="M0 0 C0.66 0.33 1.32 0.66 2 1 C2 1.66 2 2.32 2 3 C2.99 3.33 3.98 3.66 5 4 C2.50907189 5.24546405 1.58919267 4.7767578 -1 4 C-0.67 2.68 -0.34 1.36 0 0 Z M-1 5 C0.32 5.33 1.64 5.66 3 6 C2.34 6 1.68 6 1 6 C0.67 6.66 0.34 7.32 0 8 C-0.33 7.01 -0.66 6.02 -1 5 Z " fill="#DEDEDE" transform="translate(19,76)"/>
<path d="M0 0 C1.67542976 0.28604898 3.34385343 0.61781233 5 1 C5 2.65 5 4.3 5 6 C4.01 6.495 4.01 6.495 3 7 C1.66666667 5 0.33333333 3 -1 1 C-0.67 0.67 -0.34 0.34 0 0 Z " fill="#ADADAD" transform="translate(226,73)"/>
<path d="M0 0 C0 3.99904969 -1.72586967 5.80200422 -4 9 C-4.93423645 5.98968256 -5.04449911 5.13349732 -4 2 C-1.9375 0.8125 -1.9375 0.8125 0 0 Z " fill="#ACACAC" transform="translate(47,41)"/>
<path d="M0 0 C1.32 1.65 2.64 3.3 4 5 C0.25 6.125 0.25 6.125 -2 5 C-1.34 3.35 -0.68 1.7 0 0 Z " fill="#C3C3C3" transform="translate(94,231)"/>
<path d="M0 0 C0.99 0.33 1.98 0.66 3 1 C2.67 2.65 2.34 4.3 2 6 C1.01 6 0.02 6 -1 6 C-0.67 4.02 -0.34 2.04 0 0 Z " fill="#C9C9C9" transform="translate(19,189)"/>
<path d="M0 0 C0.33 1.32 0.66 2.64 1 4 C2.32 4 3.64 4 5 4 C5 4.99 5 5.98 5 7 C3.35 6.67 1.7 6.34 0 6 C0 4.02 0 2.04 0 0 Z " fill="#D8D8D8" transform="translate(10,134)"/>
<path d="M0 0 C0.99 0 1.98 0 3 0 C3 1.98 3 3.96 3 6 C0.525 5.01 0.525 5.01 -2 4 C-1.34 2.68 -0.68 1.36 0 0 Z " fill="#A5A5A5" transform="translate(236,101)"/>
<path d="M0 0 C0.99 0.33 1.98 0.66 3 1 C2.67 1.66 2.34 2.32 2 3 C1.34 3 0.68 3 0 3 C-0.33 4.32 -0.66 5.64 -1 7 C-1.66 7 -2.32 7 -3 7 C-1.125 1.125 -1.125 1.125 0 0 Z " fill="#CBCBCB" transform="translate(24,67)"/>
<path d="M0 0 C0.33 0.66 0.66 1.32 1 2 C0.67 2.66 0.34 3.32 0 4 C-0.66 4 -1.32 4 -2 4 C-2 4.99 -2 5.98 -2 7 C-3.32 6.67 -4.64 6.34 -6 6 C-4.02 4.02 -2.04 2.04 0 0 Z " fill="#6B6B6B" transform="translate(43,41)"/>
<path d="M0 0 C1.32 0 2.64 0 4 0 C4 0.99 4 1.98 4 3 C2.35 3.33 0.7 3.66 -1 4 C-0.67 2.68 -0.34 1.36 0 0 Z " fill="#BEBEBE" transform="translate(86,14)"/>
</svg>
